Coordinates
version=1
nRows=13
nColumns=40
inDegrees=yes

Units are S.I. units (second, meters, Newtons, ...)
Angles are in degrees.

endheader
time	pelvis_tilt	pelvis_list	pelvis_rotation	pelvis_tx	pelvis_ty	pelvis_tz	hip_flexion_r	hip_adduction_r	hip_rotation_r	knee_angle_r	knee_angle_r_beta	ankle_angle_r	subtalar_angle_r	mtp_angle_r	hip_flexion_l	hip_adduction_l	hip_rotation_l	knee_angle_l	knee_angle_l_beta	ankle_angle_l	subtalar_angle_l	mtp_angle_l	lumbar_extension	lumbar_bending	lumbar_rotation	arm_flex_r	arm_add_r	arm_rot_r	elbow_flex_r	pro_sup_r	wrist_flex_r	wrist_dev_r	arm_flex_l	arm_add_l	arm_rot_l	elbow_flex_l	pro_sup_l	wrist_flex_l	wrist_dev_l
      0.44000000	     -6.13612812	     -6.01964741	      4.96425158	      0.21930018	      0.86401409	     -0.44761986	     62.05046707	      2.94362506	     -6.19273643	    -59.73062798	     -1.04249612	     -8.04588648	    -15.27438377	     23.80401943	    -14.62276405	      5.61315200	     -0.72164069	    -32.19493155	     -0.56190756	    -22.79622700	     11.76543257	     15.35481400	    -10.27898023	      5.46865100	    -23.32437212	    -41.05140315	    -31.55810921	    -13.43263517	     83.51796996	     89.95437384	      0.00000000	      0.00000000	     19.01881729	     22.93494991	     -4.19659951	    126.40486536	     89.95437384	      0.00000000	      0.00000000
      0.45000000	     -6.29613152	     -5.51546664	      5.25585764	      0.27081476	      0.86566950	     -0.45028250	     60.89091687	      2.22020902	     -6.16605957	    -53.21329384	     -0.92874718	    -10.40060573	    -14.30145749	     23.88174479	    -15.49448672	      4.71493828	     -3.29207654	    -33.54986479	     -0.58555560	    -23.11748304	     10.69311432	     15.45775476	     -9.47110885	      5.35860161	    -24.54218003	    -42.28895505	    -31.79500768	    -14.50231797	     84.55367705	     89.95437384	      0.00000000	      0.00000000	     17.48410557	     22.60142640	     -5.01677438	    129.17962028	     89.95437384	      0.00000000	      0.00000000
      0.46000000	     -6.48906430	     -4.85690469	      5.30606361	      0.32228673	      0.86652439	     -0.45225281	     59.41541892	      1.73817139	     -5.77403479	    -47.24667242	     -0.82460999	    -12.74913475	    -12.99621725	     24.15393534	    -15.57531567	      3.39741654	     -5.93517042	    -36.32505487	     -0.63399181	    -23.05885860	     10.15510110	     15.33672353	     -8.63196191	      4.95506255	    -25.19748492	    -43.28632915	    -31.68217085	    -15.44324928	     85.19275071	     89.95437384	      0.00000000	      0.00000000	     15.69994793	     22.26579372	     -6.15468626	    131.20234029	     89.95437384	      0.00000000	      0.00000000
      0.47000000	     -6.94041522	     -4.39021071	      5.57320052	      0.37319805	      0.86606294	     -0.45438279	     58.02464647	      1.07314060	     -5.97045193	    -42.16964427	     -0.73599914	    -14.99547780	    -11.92603833	     24.18117704	    -14.20573221	      2.41099355	     -7.47674581	    -40.90422671	     -0.71391343	    -22.79046791	     10.70256853	     15.25768612	     -7.53329072	      4.71223887	    -25.79269136	    -43.88278325	    -31.46880025	    -16.13116996	     85.54675242	     89.95437384	      0.00000000	      0.00000000	     13.63336940	     21.83213457	     -7.43168965	    132.49729760	     89.95437384	      0.00000000	      0.00000000
      0.48000000	     -7.11200362	     -3.83669963	      5.63222320	      0.42410350	      0.86545849	     -0.45581144	     56.10963514	      0.59273453	     -6.17185809	    -38.04994364	     -0.66409680	    -16.49990223	    -10.83478907	     24.02825684	    -12.60196553	      1.42242020	     -7.94568757	    -46.16054949	     -0.80565357	    -22.09467639	     12.25392495	     15.29181563	     -6.80005000	      4.31355119	    -25.85827028	    -44.15158250	    -30.94721798	    -16.49936778	     85.68939613	     89.95437384	      0.00000000	      0.00000000	     11.28753166	     21.35926341	     -8.60110096	    132.81467058	     89.95437384	      0.00000000	      0.00000000
      0.49000000	     -6.58724514	     -2.90233749	      5.51237832	      0.47527693	      0.86531398	     -0.45702233	     53.36665600	      0.00239649	     -6.37019194	    -35.23766165	     -0.61501322	    -18.05357352	     -9.71038380	     24.10134292	    -11.54175161	      0.35051796	     -7.42850514	    -51.33302427	     -0.89593029	    -21.39024399	     13.77875825	     15.23443629	     -6.92577915	      3.52603287	    -25.44234488	    -43.94563055	    -30.06414007	    -16.64065093	     85.70662958	     89.95437384	      0.00000000	      0.00000000	      8.85618576	     20.95854668	     -9.63369158	    132.20286677	     89.95437384	      0.00000000	      0.00000000
      0.50000000	     -6.41344830	     -2.24949034	      5.34049809	      0.52613077	      0.86377276	     -0.45795955	     51.09464059	     -0.60311562	     -7.49079461	    -33.56347139	     -0.58579308	    -21.07099219	     -8.55935731	     24.14695298	     -9.61029552	     -0.28244725	     -6.40734139	    -56.94663476	     -0.99390627	    -19.72500364	     16.30897436	     15.29605483	     -6.57751998	      2.99580924	    -24.69185637	    -43.57854541	    -29.16271890	    -16.46475719	     85.62525564	     89.95437384	      0.00000000	      0.00000000	      6.13109190	     20.40457060	    -10.43158173	    130.68668998	     89.95437384	      0.00000000	      0.00000000
      0.51000000	     -6.08856287	     -1.36551682	      5.19084396	      0.57683261	      0.86147728	     -0.45879927	     48.68780416	     -1.35949982	     -8.20910542	    -33.16631321	     -0.57886137	    -23.35529823	     -7.93875386	     23.89215033	     -7.46529251	     -0.83890640	     -5.09562948	    -62.55333186	     -1.09176160	    -18.33212140	     17.67956661	     15.65067226	     -6.39476759	      2.24840309	    -23.79437750	    -42.96960824	    -28.16691969	    -16.01585111	     85.63084707	     89.95437384	      0.00000000	      0.00000000	      3.21902149	     19.99701752	    -10.79618818	    128.49483711	     89.95437384	      0.00000000	      0.00000000
      0.52000000	     -5.62390905	     -0.50013763	      4.85590637	      0.62704402	      0.85857661	     -0.45928107	     45.98857391	     -1.74579633	     -7.93493031	    -33.48442097	     -0.58441339	    -20.17242045	     -6.86434305	     22.86780594	     -5.14921484	     -1.17886280	     -3.52189410	    -68.06459055	     -1.18795121	    -16.66170084	     18.18759573	     16.54328301	     -6.41753598	      1.52203358	    -22.45374238	    -42.03074561	    -27.05080706	    -15.31387821	     85.55164055	     89.95437384	      0.00000000	      0.00000000	      0.47627346	     19.89741617	    -11.06165425	    125.74756409	     89.95437384	      0.00000000	      0.00000000
      0.53000000	     -5.02765973	      0.37354510	      4.40658114	      0.67669484	      0.85515834	     -0.45981361	     42.92111630	     -1.87828486	     -7.00784242	    -35.34091746	     -0.61681537	     -9.99757922	     -5.54047575	     20.60179744	     -2.72224529	     -1.53380809	     -1.95789360	    -73.34724072	     -1.28015085	    -14.78221582	     18.47742572	     18.04312604	     -6.63717530	      0.84468892	    -20.84048050	    -40.75395331	    -25.97610211	    -14.37121285	     85.45785638	     89.95437384	      0.00000000	      0.00000000	     -2.22454108	     19.80918843	    -11.09663547	    122.50317346	     89.95437384	      0.00000000	      0.00000000
      0.54000000	     -4.36536811	      0.87491337	      3.89233241	      0.72489545	      0.85134862	     -0.45981268	     40.64889495	     -1.85384186	     -6.63194457	    -40.06513820	     -0.69926858	     -0.78096702	     -2.98631022	     16.36078951	      0.12258505	     -1.37418337	     -0.44006565	    -78.61789102	     -1.37214105	    -12.91903901	     18.60442235	     20.08083137	     -7.11145168	      0.58878697	    -19.01664665	    -39.01970709	    -24.82974692	    -13.25391968	     85.42773081	     89.95437384	      0.00000000	      0.00000000	     -4.85551690	     19.72976947	    -10.70612525	    118.95884401	     89.95437384	      0.00000000	      0.00000000
      0.55000000	     -3.97700940	      0.98824876	      3.11675006	      0.77101028	      0.84683145	     -0.45948556	     39.34071258	     -1.19549622	     -5.79409063	    -44.79133553	     -0.78175628	      3.62129345	     -4.21319645	      4.09840588	      3.87162797	     -0.75948705	      1.12043172	    -83.91018735	     -1.46450905	    -11.08501859	     18.55427783	     22.06117270	     -7.50353962	      0.77442850	    -16.73482738	    -36.90065560	    -23.74735358	    -12.02865684	     85.47327642	     89.95437384	      0.00000000	      0.00000000	     -7.14256673	     19.69462813	    -10.23634928	    114.94273648	     89.95437384	      0.00000000	      0.00000000
      0.56000000	     -3.46003300	      0.59458064	      1.99735802	      0.81539680	      0.84296862	     -0.45885449	     38.19096773	      0.18654866	     -4.83092332	    -49.69330854	     -0.86731185	      7.74174626	     -5.15439177	      3.08145719	      7.93667357	      0.31346971	      2.44266688	    -88.79765017	     -1.54981136	     -9.53488866	     18.44896775	     21.38881830	     -8.26345734	      1.51851117	    -14.10545570	    -34.10977522	    -22.92936768	    -10.43104835	     85.61310943	     89.95437384	      0.00000000	      0.00000000	     -9.21520680	     19.46798284	     -9.38343021	    110.53337893	     89.95437384	      0.00000000	      0.00000000
